# xmcd
#
# Track frame offsets:
#	150
#	21612
#	41143
#	57527
#	75961
#	95975
#	110375
#	124490
#	146642
#	165679
#	183877
#	205119
#	224957
#	239760
#	258974
#
# Disc length: 3608 seconds
#
# Revision: 2
# Processed by: cddbd v1.5.2PL0 Copyright (c) Steve Scherf et al.
# Submitted via: audiograbber 1.83.01
#
DISCID=ed0e160f
DTITLE=Vários - Canto e Encanto Nativo - Vol. 11
DYEAR=2000
DGENRE=Gaúcha
TTITLE0=César Oliveira - Lá na fronteira
TTITLE1=Délcio Tavares - Mate de esperança
TTITLE2=Oswaldir e Carlos Magrão - Cantiga de rio e remo
TTITLE3=João Chagas Leite - Desassossegos
TTITLE4=Mano Lima - Dom Santana
TTITLE5=Os Mateadores - Romance de um peão posteiro
TTITLE6=Cássia Abreu - Juntando gravetos
TTITLE7=Luiz Carlos Borges - Encontro com a milonga
TTITLE8=Os Monarcas - Prece telúrica
TTITLE9=Cristiano Quevedo - Contraponto
TTITLE10=Walter Morais - Um rancho no descampado
TTITLE11=Pedro Ortaça - Guri Canoeiro
TTITLE12=Cesar Oliveira e Rogério Melo - Das coisas simples da gente
TTITLE13=Grupo Reponte - Carneador de tropa
TTITLE14=Omair Ribeiro Trindade - Ruínas missioneiras
EXTD=Canto e Encanto Nativo Vol. 11
EXTT0=
EXTT1=
EXTT2=
EXTT3=
EXTT4=
EXTT5=
EXTT6=
EXTT7=
EXTT8=
EXTT9=
EXTT10=
EXTT11=
EXTT12=
EXTT13=
EXTT14=
PLAYORDER=
